<?xml version="1.0" encoding="UTF-8" standalone="no"?>
<!-- Created with Inkscape (http://www.inkscape.org/) -->

<svg
   width="68.757263mm"
   height="38.036373mm"
   viewBox="0 0 72 39.830248"
   version="1.1"
   id="svg3743"
   inkscape:version="1.2.2 (b0a8486541, 2022-12-01)"
   sodipodi:docname="logo_card_v1.svg"
   inkscape:export-filename="logo_v0.png"
   inkscape:export-xdpi="90"
   inkscape:export-ydpi="90"
   xmlns:inkscape="http://www.inkscape.org/namespaces/inkscape"
   xmlns:sodipodi="http://sodipodi.sourceforge.net/DTD/sodipodi-0.dtd"
   xmlns="http://www.w3.org/2000/svg"
   xmlns:svg="http://www.w3.org/2000/svg">
  <sodipodi:namedview
     id="namedview3745"
     pagecolor="#ffffff"
     bordercolor="#666666"
     borderopacity="1.0"
     inkscape:showpageshadow="2"
     inkscape:pageopacity="0.0"
     inkscape:pagecheckerboard="0"
     inkscape:deskcolor="#d1d1d1"
     inkscape:document-units="mm"
     showgrid="false"
     inkscape:zoom="4.7209032"
     inkscape:cx="122.32829"
     inkscape:cy="60.052068"
     inkscape:window-width="3440"
     inkscape:window-height="1371"
     inkscape:window-x="0"
     inkscape:window-y="0"
     inkscape:window-maximized="1"
     inkscape:current-layer="g5523"
     showborder="false" />
  <defs
     id="defs3740">
    <inkscape:path-effect
       effect="bspline"
       id="path-effect607-1-97-3"
       is_visible="true"
       lpeversion="1"
       weight="33.333333"
       steps="2"
       helper_size="0"
       apply_no_weight="true"
       apply_with_weight="true"
       only_selected="false" />
    <inkscape:path-effect
       effect="bspline"
       id="path-effect607-6-0-3-7"
       is_visible="true"
       lpeversion="1"
       weight="33.333333"
       steps="2"
       helper_size="0"
       apply_no_weight="true"
       apply_with_weight="true"
       only_selected="false" />
    <inkscape:path-effect
       effect="bspline"
       id="path-effect3414-9-6-5-4-6-4"
       is_visible="true"
       lpeversion="1"
       weight="33.333333"
       steps="2"
       helper_size="0"
       apply_no_weight="true"
       apply_with_weight="true"
       only_selected="false" />
    <inkscape:path-effect
       effect="bspline"
       id="path-effect3414-9-6-5-4-6-4-5"
       is_visible="true"
       lpeversion="1"
       weight="33.333333"
       steps="2"
       helper_size="0"
       apply_no_weight="true"
       apply_with_weight="true"
       only_selected="false" />
    <inkscape:path-effect
       effect="bspline"
       id="path-effect3414-9-6-5-4-6-4-3"
       is_visible="true"
       lpeversion="1"
       weight="33.333333"
       steps="2"
       helper_size="0"
       apply_no_weight="true"
       apply_with_weight="true"
       only_selected="false" />
    <inkscape:path-effect
       effect="bspline"
       id="path-effect3414-9-6-5-4-6-4-5-0"
       is_visible="true"
       lpeversion="1"
       weight="33.333333"
       steps="2"
       helper_size="0"
       apply_no_weight="true"
       apply_with_weight="true"
       only_selected="false" />
    <filter
       inkscape:label="Stained Glass"
       inkscape:menu="Bevels"
       inkscape:menu-tooltip="Illuminated stained glass effect"
       height="1.2780366"
       width="1.1448668"
       y="-0.13901826"
       x="-0.072433408"
       style="color-interpolation-filters:sRGB;"
       id="filter10672">
      <feBlend
         in2="SourceGraphic"
         result="result1"
         mode="screen"
         id="feBlend10650" />
      <feGaussianBlur
         stdDeviation="7"
         result="result6"
         id="feGaussianBlur10652" />
      <feComposite
         operator="xor"
         in="result6"
         in2="result6"
         result="result7"
         id="feComposite10654" />
      <feComposite
         in2="result1"
         operator="atop"
         in="result6"
         result="result92"
         id="feComposite10656" />
      <feComposite
         result="result4"
         in="result7"
         operator="xor"
         in2="result92"
         id="feComposite10658" />
      <feGaussianBlur
         result="result3"
         stdDeviation="0.7"
         in="result4"
         id="feGaussianBlur10660" />
      <feSpecularLighting
         result="result5"
         specularExponent="50"
         specularConstant="1.5"
         surfaceScale="4"
         id="feSpecularLighting10664">
        <fePointLight
           z="20000"
           y="-8000"
           x="-5000"
           id="fePointLight10662" />
      </feSpecularLighting>
      <feComposite
         in="result3"
         k3="1"
         k2="1"
         operator="arithmetic"
         in2="SourceGraphic"
         result="result93"
         id="feComposite10666" />
      <feComposite
         in="result5"
         operator="atop"
         in2="result93"
         result="result94"
         id="feComposite10668" />
      <feBlend
         mode="multiply"
         in2="result94"
         id="feBlend10670" />
    </filter>
  </defs>
  <g
     inkscape:label="Layer 1"
     inkscape:groupmode="layer"
     id="layer1"
     transform="translate(-51.785945,-49.074605)">
    <g
       id="g3012-7-9-5"
       style="display:inline;fill:#1b1bdd;fill-opacity:1;stroke:#fff9e5;stroke-opacity:1"
       transform="matrix(0.26340132,0,0,0.27890058,47.132296,33.916756)">
      <g
         id="g5523"
         transform="translate(6.957507,8.3963701)"
         style="filter:url(#filter10672);opacity:0.16;fill:#000000;fill-opacity:1">
        <path
           style="fill:#0a0a41;fill-opacity:1;stroke:#1b1bdd;stroke-width:0.75;stroke-linecap:round;stroke-linejoin:round;stroke-dasharray:none;stroke-opacity:1"
           d="m 106.66216,144.26882 c 0.10423,0.11347 0.31241,0.34012 0.53645,0.57981 0.22403,0.23969 0.46389,0.49241 0.79491,0.81873 0.33101,0.32632 0.75313,0.72623 1.09257,1.03905 0.33944,0.31281 0.59616,0.53851 0.85408,0.75037 0.25793,0.21186 0.51703,0.40989 0.83299,0.66038 0.31595,0.25049 0.68875,0.55341 0.95755,0.74645 0.2688,0.19304 0.43353,0.27625 0.35211,0.60671 -0.0814,0.33046 -0.37052,0.84097 -0.86358,1.41434 -0.49305,0.57337 -1.14233,1.07214 -2.15405,1.56673 -1.01171,0.49458 -2.5469,0.90198 -3.94726,1.1869 -1.40036,0.28491 -2.68276,0.46367 -3.25939,0.7538 -0.57664,0.29013 -0.59444,0.75798 -0.87407,1.45387 -0.27963,0.69589 -1.077416,1.98198 -1.989229,3.31754 -0.911813,1.33555 -1.937983,2.70576 -3.039594,3.81381 -1.101611,1.10805 -2.333648,2.04129 -2.947806,2.5012 -0.614159,0.45991 -0.731399,0.53868 -0.554772,0.5851 0.176626,0.0464 0.646771,0.0578 1.644007,0.2452 0.997236,0.18737 2.50111,0.54393 3.840404,0.90176 1.339295,0.35783 2.51248,0.70705 3.74587,1.13357 1.23338,0.42653 2.53042,0.93956 3.5763,1.55176 1.04588,0.61219 1.89918,1.31045 2.36676,2.11812 0.46758,0.80766 0.67147,2.02568 0.5903,3.00457 -0.0812,0.97888 -0.37849,1.86153 -0.61173,2.65516 -0.23325,0.79363 -0.41047,1.49836 -0.68872,2.72965 -0.27824,1.23129 -0.63512,3.00709 -1.32466,3.7709 -0.68954,0.76381 -2.63301,1.24269 -4.83096,1.27184 -2.197945,0.0291 -4.88181,-0.52893 -6.673062,-0.97036 -1.791253,-0.44143 -2.700114,-0.70095 -3.808842,-1.05107 -1.108729,-0.35011 -2.407703,-0.80039 -3.726097,-1.47253 -1.318394,-0.67215 -2.637248,-1.59163 -3.308306,-2.17879 -0.671059,-0.58717 -0.670966,-0.58707 -0.939476,-1.04833 -0.268509,-0.46126 -0.543378,-1.30352 -0.663173,-2.48391 -0.119795,-1.1804 0.01953,-2.41518 0.191062,-3.3573 0.171529,-0.94212 0.342744,-1.62025 0.416026,-1.91313 0.07328,-0.29289 0.08919,-0.36182 -0.289926,-0.65733 -0.379116,-0.29552 -1.328828,-0.9421 -2.068373,-1.80357 -0.739546,-0.86147 -1.371868,-2.10076 -1.759951,-3.02758 -0.388083,-0.92683 -0.584043,-1.51529 -0.625438,-2.05938 -0.0414,-0.54408 0.06233,-1.12973 0.307328,-1.66585 0.245002,-0.53611 0.681739,-1.07399 1.710544,-2.13892 1.028806,-1.06492 2.767354,-2.58094 3.998006,-3.6044 1.230653,-1.02346 1.933084,-1.58037 2.734946,-2.17253 0.801862,-0.59215 1.707936,-1.21442 2.698205,-1.79035 0.990268,-0.57593 2.07041,-1.09112 2.487574,-1.39761 0.417164,-0.30648 0.340145,-0.48654 0.197669,-1.01152 -0.142477,-0.52498 -0.362671,-1.44726 -0.400458,-2.14972 -0.03779,-0.70246 0.0305,-1.22734 0.218402,-1.63714 0.187901,-0.40981 0.523797,-0.78605 0.938217,-1.06245 0.414419,-0.2764 0.9664,-0.46815 2.175851,-0.77371 1.20945,-0.30556 3.127502,-0.61751 4.46293,-0.80246 1.335422,-0.18495 2.085242,-0.27081 2.817142,-0.33481 0.7319,-0.064 1.40933,-0.0989 1.76352,-0.11719 0.35418,-0.0183 0.35417,-0.0182 0.47246,-0.0134 0.11828,0.005 0.35879,0.0146 0.62922,0.0642 0.27043,0.0496 0.55466,0.13514 0.86798,0.36678 0.31331,0.23165 0.64234,0.60146 0.80785,0.7875 0.16551,0.18603 0.16547,0.18603 0.26969,0.2995 z"
           id="path605-0-3-0"
           sodipodi:nodetypes="ccccccccssscsssccsssssssssssssssssscsssssssscsssssscccscc"
           inkscape:original-d="m 106.55794,144.15535 c 0.20846,0.22693 0.41664,0.45358 0.62457,0.67997 0.24014,0.25299 0.48,0.50571 0.71961,0.75817 0.4224,0.4002 0.84452,0.80011 1.26639,1.19977 0.257,0.22598 0.51372,0.45168 0.77019,0.67712 0.25937,0.1983 0.51847,0.39633 0.77731,0.5941 0.37308,0.3032 0.74587,0.60612 1.11842,0.90879 0.16502,0.0835 0.32975,0.1667 0.49424,0.24965 -0.17801,0.66238 -0.56641,1.11666 -1.00654,1.77731 -0.44013,0.66063 -1.06104,1.19633 -2.14457,1.64744 -1.08353,0.45111 -2.62966,0.81727 -4.08347,1.08365 -1.36832,0.25074 -2.65306,0.41265 -3.79615,0.52917 0.0966,0.42601 0.10536,0.89487 -0.0537,1.4118 -0.31121,1.01111 -1.262196,2.20217 -2.190051,3.53054 -0.927858,1.32835 -1.830725,2.7909 -2.944007,3.93102 -1.113282,1.14011 -2.434665,1.9554 -3.592545,2.72128 -0.12455,0.0824 -0.241168,0.1621 -0.362252,0.2434 0.474873,-0.0117 0.945132,-0.005 1.405599,0.0341 1.587914,0.13332 3.057649,0.63387 4.385262,1.03973 1.327613,0.40584 2.512164,0.71687 3.756874,1.11827 1.24472,0.40139 2.55004,0.89348 3.66334,1.44901 1.11331,0.55553 2.03261,1.17313 2.56264,2.09703 0.53002,0.92389 0.66983,2.15264 0.53382,3.18895 -0.13602,1.03631 -0.54797,1.88035 -0.89039,2.64325 -0.34242,0.7629 -0.61511,1.44362 -0.68471,2.72283 -0.0696,1.27921 0.0639,3.15356 -0.85783,4.26848 -0.92169,1.11493 -2.89636,1.46718 -5.21157,1.28416 -2.315202,-0.18302 -4.965837,-0.9009 -6.744806,-1.4025 -1.778968,-0.50161 -2.680892,-0.78542 -3.805969,-1.08676 -1.125076,-0.30133 -2.469871,-0.61942 -3.805969,-1.3193 -1.336098,-0.69988 -2.585237,-1.71936 -3.285071,-2.2903 -0.699835,-0.57094 -0.699993,-0.57061 -0.969967,-1.05988 -0.269973,-0.48927 -0.705786,-1.279 -0.821138,-2.51613 -0.115353,-1.23713 0.157284,-2.45686 0.382922,-3.39359 0.225639,-0.93673 0.416826,-1.60982 0.539502,-2.13682 0.01424,-0.0612 0.0302,-0.13012 0.04496,-0.19482 -0.975676,-0.2289 -1.924669,-0.87653 -2.642216,-1.79885 -0.769994,-0.98976 -1.272979,-2.29504 -1.649511,-3.23288 -0.376533,-0.93785 -0.626462,-1.50834 -0.694532,-2.08566 -0.06806,-0.57731 0.04536,-1.16125 0.306958,-1.73323 0.261597,-0.57197 0.671534,-1.13161 1.753899,-2.16008 1.082364,-1.02844 2.837274,-2.52569 4.069519,-3.54862 1.232244,-1.02291 1.941468,-1.57125 2.738851,-2.17144 0.797381,-0.6002 1.682816,-1.25252 2.715596,-1.865 0.95008,-0.56344 2.023636,-1.09244 2.983797,-1.42317 -0.08302,-0.17576 -0.160103,-0.35579 -0.230993,-0.54002 -0.323549,-0.84085 -0.529786,-1.76647 -0.594796,-2.49132 -0.06501,-0.72485 0.0113,-1.24869 0.220658,-1.69602 0.209354,-0.44733 0.551518,-0.81798 0.993738,-1.11311 0.44222,-0.29513 0.984543,-0.51469 2.216402,-0.76998 1.231859,-0.25529 3.15331,-0.54634 4.489649,-0.73019 1.336337,-0.18385 2.087207,-0.26046 2.924367,-0.33486 0.62787,-0.0558 1.30426,-0.11087 2.01487,-0.10387 l -10e-6,6e-5 c 0.23656,0.01 0.47707,0.0197 0.7214,0.0294 0.29649,0.0894 0.58072,0.17495 0.87364,0.26292 0.33378,0.37513 0.6628,0.74495 0.99381,1.11703 z"
           inkscape:path-effect="#path-effect607-1-97-3" />
        <path
           style="fill:#0a0a41;fill-opacity:1;stroke:#1b1bdd;stroke-width:0.75;stroke-linecap:round;stroke-linejoin:round;stroke-dasharray:none;stroke-opacity:1"
           d="m 187.76505,144.23679 c -0.10423,0.11347 -0.31241,0.34012 -0.53645,0.57981 -0.22403,0.23969 -0.46389,0.49241 -0.79491,0.81873 -0.33101,0.32632 -0.75313,0.72623 -1.09257,1.03905 -0.33944,0.31281 -0.59616,0.53851 -0.85408,0.75037 -0.25793,0.21186 -0.51703,0.40989 -0.83299,0.66038 -0.31595,0.25049 -0.68875,0.55341 -0.95754,0.74645 -0.2688,0.19304 -0.43354,0.27625 -0.35212,0.60671 0.0814,0.33046 0.37052,0.84097 0.86358,1.41434 0.49305,0.57337 1.14233,1.07214 2.15405,1.56673 1.01172,0.49459 2.5469,0.90198 3.94726,1.1869 1.40036,0.28491 2.68276,0.46367 3.2594,0.7538 0.57664,0.29013 0.59444,0.75798 0.87407,1.45387 0.27963,0.69589 1.07741,1.98198 1.98922,3.31754 0.91181,1.33555 1.93798,2.70576 3.03959,3.81381 1.10161,1.10805 2.33365,2.04129 2.94781,2.5012 0.61416,0.4599 0.7314,0.53868 0.55477,0.5851 -0.17663,0.0464 -0.64677,0.0578 -1.64401,0.2452 -0.99723,0.18737 -2.5011,0.54393 -3.8404,0.90176 -1.3393,0.35784 -2.51248,0.70705 -3.74587,1.13357 -1.23338,0.42653 -2.53042,0.93956 -3.5763,1.55176 -1.04588,0.61219 -1.89918,1.31045 -2.36676,2.11812 -0.46758,0.80766 -0.67147,2.02568 -0.5903,3.00457 0.0812,0.97888 0.37849,1.86153 0.61173,2.65516 0.23325,0.79363 0.41047,1.49836 0.68872,2.72965 0.27824,1.23129 0.63512,3.00709 1.32466,3.7709 0.68954,0.76381 2.63302,1.24269 4.83096,1.27184 2.19794,0.0292 4.88181,-0.52893 6.67307,-0.97036 1.79125,-0.44143 2.70011,-0.70095 3.80884,-1.05106 1.10872,-0.35012 2.4077,-0.8004 3.72609,-1.47254 1.3184,-0.67214 2.63725,-1.59163 3.30831,-2.17879 0.67106,-0.58717 0.67096,-0.58707 0.93947,-1.04833 0.26851,-0.46126 0.54338,-1.30352 0.66318,-2.48392 0.11979,-1.18039 -0.0195,-2.41517 -0.19106,-3.35729 -0.17153,-0.94212 -0.34275,-1.62026 -0.41603,-1.91313 -0.0733,-0.29287 -0.0892,-0.36181 0.28989,-0.65733 0.37911,-0.29552 1.32882,-0.9421 2.06837,-1.80357 0.73954,-0.86147 1.37186,-2.10076 1.75995,-3.02759 0.38808,-0.92682 0.58404,-1.51529 0.62544,-2.05936 0.0414,-0.54408 -0.0623,-1.12975 -0.30733,-1.66586 -0.245,-0.53611 -0.68174,-1.07399 -1.71054,-2.13892 -1.02881,-1.06492 -2.76736,-2.58093 -3.99801,-3.6044 -1.23065,-1.02346 -1.93309,-1.58037 -2.73495,-2.17253 -0.80186,-0.59215 -1.70794,-1.21442 -2.6982,-1.79035 -0.99027,-0.57593 -2.07041,-1.09112 -2.48757,-1.3976 -0.41717,-0.30649 -0.34015,-0.48655 -0.19767,-1.01153 0.14247,-0.52498 0.36267,-1.44727 0.40046,-2.14972 0.0378,-0.70246 -0.0305,-1.22734 -0.21841,-1.63714 -0.1879,-0.40981 -0.52379,-0.78605 -0.93821,-1.06245 -0.41442,-0.2764 -0.9664,-0.46815 -2.17585,-0.77371 -1.20946,-0.30556 -3.12751,-0.61751 -4.46294,-0.80246 -1.33542,-0.18495 -2.08524,-0.27081 -2.81714,-0.33481 -0.7319,-0.064 -1.40933,-0.0989 -1.76352,-0.11719 -0.35418,-0.0183 -0.35417,-0.0182 -0.47246,-0.0134 -0.11828,0.005 -0.35879,0.0146 -0.62922,0.0642 -0.27043,0.0496 -0.55466,0.13514 -0.86798,0.36678 -0.31331,0.23165 -0.64233,0.60146 -0.80785,0.78749 -0.16551,0.18604 -0.16543,0.18604 -0.26965,0.29951 z"
           id="path605-7-8-1-4"
           sodipodi:nodetypes="ccccccccssscsssccsssssssssssssssssscsssssssscsssssscccscc"
           inkscape:original-d="m 187.86927,144.12332 c -0.20846,0.22693 -0.41664,0.45358 -0.62457,0.67997 -0.24014,0.25299 -0.48,0.50571 -0.71961,0.75817 -0.4224,0.4002 -0.84452,0.80011 -1.26639,1.19977 -0.257,0.22598 -0.51372,0.45168 -0.77019,0.67712 -0.25937,0.1983 -0.51847,0.39633 -0.77731,0.5941 -0.37308,0.3032 -0.74587,0.60612 -1.11842,0.90879 -0.16501,0.0835 -0.32975,0.1667 -0.49424,0.24965 0.17801,0.66238 0.56641,1.11666 1.00654,1.77731 0.44013,0.66063 1.06104,1.19633 2.14457,1.64744 1.08354,0.45111 2.62966,0.81727 4.08347,1.08365 1.36832,0.25074 2.65306,0.41265 3.79616,0.52917 -0.0966,0.42601 -0.10536,0.89487 0.0537,1.4118 0.3112,1.01111 1.26219,2.20217 2.19004,3.53054 0.92786,1.32835 1.83073,2.7909 2.94401,3.93102 1.11328,1.14011 2.43466,1.9554 3.59254,2.72128 0.12455,0.0824 0.24117,0.1621 0.36226,0.2434 -0.47488,-0.0117 -0.94514,-0.005 -1.4056,0.0341 -1.58792,0.13332 -3.05765,0.63387 -4.38526,1.03973 -1.32762,0.40584 -2.51217,0.71687 -3.75688,1.11827 -1.24472,0.40139 -2.55004,0.89348 -3.66334,1.44901 -1.11331,0.55553 -2.03261,1.17313 -2.56264,2.09703 -0.53002,0.92389 -0.66983,2.15264 -0.53382,3.18895 0.13602,1.03631 0.54797,1.88035 0.89039,2.64325 0.34242,0.7629 0.61511,1.44362 0.68471,2.72283 0.0696,1.27921 -0.0639,3.15356 0.85783,4.26848 0.92169,1.11493 2.89637,1.46718 5.21157,1.28416 2.3152,-0.18302 4.96584,-0.9009 6.74481,-1.4025 1.77897,-0.50161 2.68089,-0.78542 3.80597,-1.08676 1.12507,-0.30133 2.46987,-0.61942 3.80597,-1.3193 1.33609,-0.69988 2.58523,-1.71936 3.28507,-2.2903 0.69983,-0.57094 0.69999,-0.57061 0.96996,-1.05988 0.26998,-0.48927 0.70579,-1.279 0.82114,-2.51613 0.11535,-1.23713 -0.15728,-2.45686 -0.38292,-3.39359 -0.22564,-0.93673 -0.41683,-1.60982 -0.5395,-2.13682 -0.0142,-0.0612 -0.0302,-0.13012 -0.045,-0.19482 0.97567,-0.2289 1.92467,-0.87653 2.64221,-1.79885 0.77,-0.98976 1.27298,-2.29504 1.64951,-3.23288 0.37654,-0.93785 0.62647,-1.50834 0.69454,-2.08566 0.0681,-0.57731 -0.0454,-1.16125 -0.30696,-1.73323 -0.2616,-0.57197 -0.67154,-1.13161 -1.7539,-2.16008 -1.08236,-1.02844 -2.83727,-2.52569 -4.06952,-3.54862 -1.23224,-1.02291 -1.94147,-1.57125 -2.73885,-2.17144 -0.79738,-0.6002 -1.68282,-1.25252 -2.7156,-1.865 -0.95008,-0.56344 -2.02363,-1.09244 -2.98379,-1.42317 0.083,-0.17576 0.1601,-0.35579 0.23099,-0.54002 0.32355,-0.84085 0.52979,-1.76647 0.5948,-2.49132 0.065,-0.72485 -0.0113,-1.24869 -0.22066,-1.69602 -0.20936,-0.44733 -0.55152,-0.81798 -0.99374,-1.11311 -0.44222,-0.29513 -0.98454,-0.51469 -2.2164,-0.76998 -1.23186,-0.25529 -3.15331,-0.54634 -4.48965,-0.73019 -1.33634,-0.18385 -2.08721,-0.26046 -2.92437,-0.33486 -0.62787,-0.0558 -1.30426,-0.11087 -2.01487,-0.10387 l 1e-5,6e-5 c -0.23656,0.01 -0.47707,0.0197 -0.7214,0.0294 -0.29649,0.0894 -0.58072,0.17495 -0.87364,0.26292 -0.33378,0.37513 -0.66279,0.74495 -0.99381,1.11703 z"
           inkscape:path-effect="#path-effect607-6-0-3-7" />
        <path
           id="path366-6-9-8"
           style="fill:#0a0a41;fill-opacity:1;stroke:#1b1bdd;stroke-width:0.75;stroke-linecap:round;stroke-linejoin:round;stroke-dasharray:none;stroke-opacity:1"
           d="m 137.33509,49.818642 c -1.31522,0.0092 -2.69062,0.07892 -4.20181,0.198437 -2.4179,0.191233 -5.18362,0.509366 -8.45685,1.080037 -3.27322,0.570673 -7.05369,1.393889 -9.56324,2.07791 -2.50955,0.684021 -3.7479,1.228845 -4.52272,1.771468 -0.77482,0.542622 -1.08611,1.082954 -1.18752,1.672249 -0.0221,0.128559 -0.0338,0.259198 -0.0377,0.390674 -0.004,0.116936 0.22132,0.627315 0.22841,0.744141 -0.0797,-0.09022 -0.38595,-0.573127 -0.47439,-0.663009 -0.28204,-0.286624 -0.60909,-0.569615 -0.98496,-0.836125 -0.86652,-0.614419 -1.98464,-1.141385 -3.63905,-1.540474 -1.65441,-0.399089 -3.84486,-0.670074 -6.410461,-0.761711 -0.6414,-0.02291 -1.30624,-0.03469 -1.983341,-0.03772 -2.031307,-0.0091 -4.173681,0.05968 -6.125725,0.136942 -2.602724,0.103022 -4.867505,0.221199 -6.856429,0.505912 -1.988924,0.284716 -3.701746,0.736064 -5.004345,1.207162 -1.302602,0.471094 -2.194863,0.961716 -2.840137,1.418518 -0.645274,0.456799 -1.043425,0.879653 -1.329118,1.412317 -0.285693,0.532661 -0.45905,1.17491 -0.545703,1.496033 -0.08665,0.321119 -0.08668,0.321541 -0.203088,0.657841 -0.116412,0.336296 -0.34932,1.008751 -0.402043,1.774568 -0.01627,0.236277 0.437965,1.383217 0.452685,1.630908 -0.137033,-0.197588 -0.727164,-1.286468 -0.866613,-1.460376 -0.151887,-0.189418 -0.30494,-0.363199 -0.458887,-0.518831 -1.996177,-2.018018 -4.111563,-1.018432 -5.646684,-0.04186 -1.535118,0.976576 -2.489322,1.92981 -3.480924,3.273702 -0.991602,1.343891 -2.020426,3.078361 -2.929537,4.65553 -0.909112,1.577168 -1.698668,2.997298 -1.860869,5.131468 -0.162196,2.13417 0.30275,4.98209 1.376661,6.75359 1.07391,1.77154 2.756363,2.46642 4.172355,2.74764 1.030805,0.20472 2.0515,0.12068 2.901631,-0.22428 0.131354,-0.0533 1.61833,-1.49332 1.74253,-1.55494 -0.03681,0.22287 -1.519049,1.74254 -1.55081,1.99626 -0.0558,0.44576 -0.02734,0.95188 0.06356,1.36529 0.225046,1.0235 0.813688,2.16561 2.266012,3.55224 1.452321,1.38663 3.767963,3.01801 7.37371,4.4204 3.605745,1.40239 8.50111,2.57626 12.463322,3.58221 0.354185,0.0899 0.663833,0.16934 1.003556,0.25632 -0.14296,-0.26141 -0.285614,-0.52242 -0.438216,-0.79117 -0.845506,-1.48905 -1.819144,-3.09274 -1.555978,-3.39824 0.263169,-0.3055 1.762633,0.68676 3.147612,1.66811 1.38498,0.98137 2.654886,1.951 3.81217,2.48151 1.157283,0.53051 2.201001,0.62134 3.308325,0.48627 1.107326,-0.13508 2.327279,-0.51128 3.294889,-1.38389 0.96761,-0.87261 1.70783,-2.24926 1.59163,-3.93 -0.11619,-1.68073 -1.08917,-3.66555 -1.99367,-5.49423 -0.33843,-0.68422 -0.64604,-1.31751 -0.91209,-1.89395 -0.780032,-0.51683 -1.590944,-1.01379 -2.418458,-1.47019 -2.49494,-1.37604 -5.111761,-2.40437 -7.838281,-3.43235 -2.726521,-1.02798 -5.562447,-2.05562 -7.89926,-2.94504 -2.33681,-0.88941 -4.174306,-1.64013 -5.962943,-1.85777 -0.23751,-0.0289 -0.527961,-0.12188 -0.84801,-0.0734 -0.337772,0.0512 -1.27821,1.05075 -1.520838,1.05989 0.194494,-0.18734 1.30694,-1.40944 1.48208,-1.56166 1.232922,-1.07173 1.919561,-1.18075 1.324467,-3.75275 -0.02983,-0.12894 -0.06388,-0.26536 -0.100769,-0.40721 -0.03988,-0.153315 -0.60714,-1.206996 -0.65319,-1.370972 0.109604,0.135514 0.7459,1.151657 0.866097,1.263492 0.230182,0.21417 0.489552,0.39004 0.815971,0.54622 0.774711,0.37063 1.926309,0.63525 3.56464,0.95343 1.638334,0.31817 3.763199,0.69011 5.913851,0.83664 2.150652,0.14652 4.327234,0.0674 6.376355,-0.0517 2.049121,-0.11904 3.970768,-0.27804 6.12004,-0.36328 2.149268,-0.0853 4.525958,-0.0967 7.219198,-0.29611 2.69324,-0.19942 5.70288,-0.58706 9.18238,-1.08211 3.47951,-0.49501 7.42893,-1.097763 10.93784,-1.879466 3.5089,-0.781704 6.57705,-1.742235 9.16688,-2.746603 2.58983,-1.004368 4.70108,-2.052503 6.31124,-2.952791 1.61017,-0.900288 2.71936,-1.652764 3.49953,-2.331641 0.78017,-0.678873 1.23147,-1.283894 1.39527,-1.647444 0.16379,-0.363554 0.0512,-0.474576 -0.10129,-0.505396 -0.15249,-0.03082 -0.34252,0.02564 -0.58704,0.13901 -0.24456,0.113369 -0.54537,0.284154 -0.84285,0.435632 -0.29747,0.151478 -0.59183,0.283495 -1.38079,0.569474 -0.78896,0.285983 -2.07227,0.726103 -3.94033,1.300179 -1.86806,0.57408 -4.32081,1.282221 -5.6565,1.518254 -1.33569,0.236033 -1.55453,-4.87e-4 -1.88981,-0.119889 -0.33528,-0.119402 -0.78704,-0.121331 -1.14102,0.0248 -0.35397,0.146143 -0.60962,0.440465 -0.78238,0.68523 -0.17275,0.244765 -0.26223,0.439632 -0.86351,0.553455 -0.60128,0.113819 -1.74766,0.147912 -2.58072,0.156062 -0.83306,0.0082 -1.36926,-0.0091 -1.68414,-0.07338 -0.31487,-0.06431 -0.40829,-0.176403 -0.49196,-0.289388 -0.0837,-0.112985 -0.15764,-0.226871 -0.49557,-0.356051 -0.33793,-0.129179 -0.94021,-0.273087 -1.40457,-0.313159 -0.46436,-0.04007 -0.79065,0.02384 -1.04128,0.185518 -0.25063,0.161685 -0.4253,0.420664 -0.82475,0.551388 -0.39945,0.130724 -1.02421,0.13323 -1.79938,0.05633 -0.77517,-0.07691 -1.63501,-0.221864 -2.08256,-0.391707 -0.44754,-0.169843 -0.4493,-0.359142 -0.63923,-0.574642 -0.18994,-0.2155 -0.61549,-0.487784 -0.8723,-0.578776 -0.25682,-0.09099 -0.36866,-0.01574 -0.53124,0.05219 -0.16258,0.06793 -0.41263,0.139022 -0.61701,0.24598 -0.20438,0.106958 -0.38094,0.254856 -0.77722,0.225309 -0.39627,-0.02955 -1.01283,-0.236662 -1.40766,-0.49351 -0.39484,-0.256847 -0.56811,-0.563695 -0.84698,-1.123445 -0.0308,-0.06185 -0.42115,-0.683866 -0.45424,-0.751376 0.18604,0.154945 0.69729,0.803573 0.80254,0.877983 0.20193,0.142759 0.2018,0.142746 0.32608,0.201021 0.12428,0.05827 0.37275,0.174725 0.85369,0.20929 0.48095,0.03456 1.19448,-0.01278 1.78904,-0.0894 0.59456,-0.07662 1.07003,-0.182291 1.44694,-0.407728 0.37692,-0.225435 0.65522,-0.570538 0.87385,-0.907954 0.21862,-0.337418 0.37748,-0.667649 0.58601,-0.969967 0.20853,-0.302318 0.46688,-0.576773 0.66818,-0.613916 0.20129,-0.03714 0.34557,0.162716 0.62218,0.269751 0.27661,0.107035 0.68539,0.121848 0.98857,0.03256 0.30318,-0.0893 0.50066,-0.282284 0.56948,-0.532267 0.0688,-0.249984 0.009,-0.557172 0.0636,-0.845943 0.0546,-0.288773 0.22397,-0.558974 1.08313,-0.961182 0.85917,-0.402208 2.40818,-0.93669 3.20756,-1.12913 0.79938,-0.192441 0.8494,-0.04342 1.0449,0.08268 0.19549,0.126099 0.53588,0.229735 0.80667,0.250631 0.27078,0.02089 0.47196,-0.0409 0.65784,-0.13901 0.18587,-0.09812 0.35679,-0.232606 0.48834,-0.400492 0.13155,-0.167886 0.22346,-0.368841 0.25011,-0.527616 0.0266,-0.158777 -0.0122,-0.275545 0.57723,-0.522449 0.58943,-0.246905 1.80726,-0.624025 2.64015,-0.697632 0.83288,-0.07361 1.28057,0.156245 1.57303,0.248047 0.29246,0.0918 0.43009,0.04615 0.60255,-0.100769 0.17245,-0.14692 0.38019,-0.395225 0.47749,-0.580327 0.0973,-0.1851 0.0839,-0.307347 0.10283,-0.380338 0.019,-0.07299 0.07,-0.09642 0.35295,-0.237195 0.28292,-0.14077 0.79797,-0.398732 1.36633,-0.613399 0.56835,-0.214667 1.18994,-0.386375 2.41174,-0.595313 1.2218,-0.208936 3.04371,-0.455559 4.1491,-0.589628 1.10538,-0.134068 1.49409,-0.155385 1.82728,-0.183968 0.33318,-0.02858 0.61065,-0.06397 0.86248,-0.100252 0.25183,-0.03629 0.47791,-0.07354 0.52968,-0.223759 0.0518,-0.150221 -0.0707,-0.414225 -1.12965,-0.687297 -1.05893,-0.273071 -3.0543,-0.55477 -5.08703,-0.663525 -0.76227,-0.04078 -1.52958,-0.05717 -2.31872,-0.05168 z"
           sodipodi:nodetypes="csssssscssssssssssssscssssssssscssssscsssssssscsssssccsscscssccscsssssssssssssssccsssssssssssssscssssssssssscssssssssssssssssssscsscc" />
        <path
           id="path366-3-2-4-7"
           style="display:inline;fill:#0a0a41;fill-opacity:1;stroke:#1b1bdd;stroke-width:0.75;stroke-linecap:round;stroke-linejoin:round;stroke-dasharray:none;stroke-opacity:1"
           d="m 157.04174,49.818862 c 1.31522,0.0092 2.69062,0.07892 4.20181,0.198437 2.4179,0.191233 5.18362,0.509366 8.45685,1.080037 3.27322,0.570673 7.05369,1.393889 9.56324,2.07791 2.50955,0.684021 3.7479,1.228845 4.52272,1.771468 0.77482,0.542622 1.08612,1.082954 1.18753,1.672249 0.0221,0.128559 0.0338,0.259198 0.0377,0.390674 0.004,0.116936 -0.22133,0.627315 -0.22841,0.744141 0.0797,-0.09022 0.38594,-0.573127 0.47438,-0.663009 0.28204,-0.286624 0.6091,-0.569615 0.98496,-0.836125 0.86652,-0.614419 1.98464,-1.141385 3.63905,-1.540474 1.65441,-0.399089 3.84486,-0.670074 6.41046,-0.761711 0.6414,-0.02291 1.30624,-0.03469 1.98334,-0.03772 2.03131,-0.0091 4.17369,0.05968 6.12573,0.136942 2.60272,0.103022 4.8675,0.221199 6.85642,0.505912 1.98893,0.284716 3.70175,0.736064 5.00435,1.207162 1.3026,0.471094 2.19486,0.961716 2.84014,1.418518 0.64527,0.456799 1.04342,0.879653 1.32911,1.412317 0.2857,0.532661 0.45905,1.17491 0.54571,1.496033 0.0867,0.321119 0.0867,0.321541 0.20309,0.657841 0.11641,0.336296 0.34932,1.008751 0.40204,1.774568 0.0163,0.236277 -0.43797,1.383217 -0.45269,1.630908 0.13704,-0.197588 0.72717,-1.286468 0.86662,-1.460376 0.15188,-0.189418 0.30494,-0.363199 0.45888,-0.518831 1.99618,-2.018018 4.11157,-1.018432 5.64669,-0.04186 1.53512,0.976576 2.48932,1.92981 3.48092,3.273702 0.9916,1.343891 2.02043,3.078361 2.92954,4.65553 0.90911,1.577168 1.69867,2.997298 1.86087,5.131468 0.16219,2.13417 -0.30275,4.98209 -1.37666,6.75359 -1.07391,1.77154 -2.75637,2.46642 -4.17236,2.74764 -1.0308,0.20472 -2.0515,0.12068 -2.90163,-0.22428 -0.13135,-0.0533 -1.61833,-1.49332 -1.74253,-1.55494 0.0368,0.22287 1.51905,1.74254 1.55081,1.99626 0.0558,0.44576 0.0273,0.95188 -0.0636,1.36529 -0.22505,1.0235 -0.81369,2.16561 -2.26601,3.55224 -1.45232,1.38663 -3.76796,3.01801 -7.37371,4.4204 -3.60575,1.40239 -8.50111,2.57626 -12.46332,3.58221 -0.35418,0.0899 -0.66383,0.16934 -1.00356,0.25632 0.14296,-0.26141 0.28562,-0.52242 0.43822,-0.79117 0.84551,-1.48905 1.81914,-3.09274 1.55598,-3.39824 -0.26317,-0.3055 -1.76263,0.68676 -3.14761,1.66811 -1.38498,0.98137 -2.65489,1.951 -3.81217,2.48151 -1.15729,0.53051 -2.201,0.62134 -3.30833,0.48627 -1.10732,-0.13508 -2.32728,-0.51128 -3.29489,-1.38389 -0.96761,-0.87261 -1.70783,-2.24926 -1.59163,-3.93 0.11619,-1.68073 1.08917,-3.66555 1.99367,-5.49423 0.33843,-0.68422 0.64604,-1.31751 0.91209,-1.89395 0.78003,-0.51683 1.59095,-1.01379 2.41846,-1.47019 2.49494,-1.37604 5.11176,-2.40437 7.83828,-3.43235 2.72652,-1.02798 5.56244,-2.05562 7.89926,-2.94504 2.33681,-0.88941 4.1743,-1.64013 5.96294,-1.85777 0.23751,-0.0289 0.52796,-0.12188 0.84801,-0.0734 0.33777,0.0512 1.27821,1.05075 1.52084,1.05989 -0.1945,-0.18734 -1.30694,-1.40944 -1.48208,-1.56166 -1.23292,-1.07173 -1.91956,-1.18075 -1.32447,-3.75275 0.0298,-0.12894 0.0639,-0.26536 0.10077,-0.40721 0.0399,-0.153318 0.60714,-1.206998 0.65319,-1.370968 -0.1096,0.13551 -0.7459,1.15165 -0.8661,1.263488 -0.23018,0.21417 -0.48955,0.39004 -0.81597,0.54622 -0.77471,0.37063 -1.92631,0.63525 -3.56464,0.95343 -1.63833,0.31817 -3.7632,0.69011 -5.91384,0.83664 -2.15066,0.14652 -4.32724,0.0674 -6.37636,-0.0517 -2.04912,-0.11904 -3.97077,-0.27804 -6.12004,-0.36328 -2.14927,-0.0853 -4.52596,-0.0967 -7.2192,-0.29611 -2.69323,-0.19942 -5.70288,-0.58706 -9.18238,-1.08211 -3.47951,-0.49501 -7.42893,-1.097758 -10.93783,-1.879468 -3.5089,-0.781702 -6.57705,-1.742233 -9.16688,-2.746601 -2.58984,-1.004368 -4.70108,-2.052503 -6.31124,-2.952791 -1.61017,-0.900288 -2.71936,-1.652764 -3.49954,-2.331641 -0.78016,-0.678873 -1.23147,-1.283894 -1.39526,-1.647444 -0.1638,-0.363554 -0.0512,-0.474576 0.10129,-0.505396 0.15249,-0.03082 0.34252,0.02564 0.58704,0.13901 0.24456,0.113369 0.54537,0.284154 0.84285,0.435632 0.29747,0.151478 0.59183,0.283495 1.38079,0.569474 0.78896,0.285983 2.07228,0.726103 3.94033,1.300179 1.86806,0.57408 4.32081,1.282221 5.6565,1.518254 1.33569,0.236033 1.55453,-4.87e-4 1.88981,-0.119889 0.33528,-0.119402 0.78704,-0.121331 1.14102,0.0248 0.35397,0.146143 0.60962,0.440465 0.78238,0.68523 0.17275,0.244765 0.26223,0.439632 0.86351,0.553455 0.60128,0.113819 1.74766,0.147912 2.58072,0.156062 0.83306,0.0082 1.36926,-0.0091 1.68414,-0.07338 0.31488,-0.06431 0.40829,-0.176403 0.49196,-0.289388 0.0837,-0.112985 0.15764,-0.226871 0.49557,-0.356051 0.33793,-0.129179 0.9402,-0.273087 1.40456,-0.313159 0.46436,-0.04007 0.79065,0.02384 1.04128,0.185518 0.25063,0.161685 0.4253,0.420664 0.82475,0.551388 0.39945,0.130724 1.02421,0.13323 1.79938,0.05633 0.77517,-0.07691 1.63501,-0.221864 2.08256,-0.391707 0.44756,-0.169843 0.4493,-0.359142 0.63924,-0.574642 0.18993,-0.2155 0.61548,-0.487784 0.87229,-0.578776 0.25682,-0.09099 0.36866,-0.01574 0.53124,0.05219 0.16258,0.06793 0.41263,0.139022 0.61702,0.24598 0.20437,0.106958 0.38093,0.254856 0.77721,0.225309 0.39628,-0.02955 1.01283,-0.236662 1.40766,-0.49351 0.39484,-0.256847 0.56811,-0.563695 0.84698,-1.123445 0.0308,-0.06185 0.42115,-0.683866 0.45424,-0.751376 -0.18604,0.154945 -0.69728,0.803573 -0.80254,0.877983 -0.20193,0.142759 -0.20179,0.142746 -0.32608,0.201021 -0.12428,0.05827 -0.37275,0.174725 -0.85369,0.20929 -0.48094,0.03456 -1.19448,-0.01278 -1.78904,-0.0894 -0.59456,-0.07662 -1.07003,-0.182291 -1.44694,-0.407728 -0.37691,-0.225435 -0.65522,-0.570538 -0.87385,-0.907954 -0.21862,-0.337418 -0.37748,-0.667649 -0.58601,-0.969967 -0.20853,-0.302318 -0.46688,-0.576773 -0.66817,-0.613916 -0.2013,-0.03714 -0.34558,0.162716 -0.62219,0.269751 -0.27661,0.107035 -0.68539,0.121848 -0.98857,0.03256 -0.30318,-0.0893 -0.50066,-0.282284 -0.56947,-0.532267 -0.0688,-0.249984 -0.009,-0.557172 -0.0636,-0.845943 -0.0546,-0.288773 -0.22398,-0.558974 -1.08314,-0.961182 -0.85917,-0.402208 -2.40817,-0.93669 -3.20755,-1.12913 -0.79938,-0.192441 -0.8494,-0.04342 -1.0449,0.08268 -0.19549,0.126099 -0.53588,0.229735 -0.80667,0.250631 -0.27078,0.02089 -0.47196,-0.0409 -0.65784,-0.13901 -0.18587,-0.09812 -0.35679,-0.232606 -0.48834,-0.400492 -0.13155,-0.167886 -0.22346,-0.368841 -0.25011,-0.527616 -0.0267,-0.158777 0.0122,-0.275545 -0.57723,-0.522449 -0.58943,-0.246905 -1.80726,-0.624025 -2.64015,-0.697632 -0.83288,-0.07361 -1.28057,0.156245 -1.57303,0.248047 -0.29246,0.0918 -0.43009,0.04615 -0.60254,-0.100769 -0.17246,-0.14692 -0.3802,-0.395225 -0.4775,-0.580327 -0.0973,-0.1851 -0.0838,-0.307347 -0.10283,-0.380338 -0.019,-0.07299 -0.07,-0.09642 -0.35295,-0.237195 -0.28292,-0.14077 -0.79798,-0.398732 -1.36633,-0.613399 -0.56835,-0.214667 -1.18995,-0.386375 -2.41174,-0.595313 -1.22181,-0.208936 -3.04371,-0.455559 -4.14911,-0.589628 -1.10538,-0.134068 -1.49409,-0.155385 -1.82728,-0.183968 -0.33318,-0.02858 -0.61065,-0.06397 -0.86248,-0.100252 -0.25183,-0.03629 -0.47791,-0.07354 -0.52968,-0.223759 -0.0518,-0.150221 0.0707,-0.414225 1.12965,-0.687297 1.05893,-0.273071 3.0543,-0.55477 5.08703,-0.663525 0.76227,-0.04078 1.52958,-0.05717 2.31872,-0.05168 z"
           sodipodi:nodetypes="csssssscssssssssssssscssssssssscssssscsssssssscsssssccsscscssccscsssssssssssssssccsssssssssssssscssssssssssscssssssssssssssssssscsscc" />
        <g
           id="g4529-4-7-1"
           style="fill:#0a0a41;fill-opacity:1;stroke:#1b1bdd;stroke-width:0.75;stroke-dasharray:none;stroke-opacity:1">
          <path
             id="path3872-7-8-7"
             style="fill:#0a0a41;fill-opacity:1;stroke:#1b1bdd;stroke-width:0.75;stroke-linecap:round;stroke-linejoin:round;stroke-dasharray:none;stroke-opacity:1"
             d="m 75.835681,133.06268 c -0.568355,0.001 -1.11169,0.006 -1.62264,0.016 -4.087596,0.0795 -6.098239,0.46841 -7.553544,0.98082 -1.178788,0.41504 -1.992801,0.91115 -2.471684,1.4118 -1.451553,0.42722 -3.204827,1.04948 -4.936649,1.69085 -2.577048,0.95439 -5.102948,1.949 -8.259961,3.1688 -3.157014,1.2198 -6.9447,2.66497 -8.699728,3.72587 -1.33885,0.80932 -1.493605,1.3951 -1.338419,1.91771 -0.115138,0.0216 -0.235931,0.0505 -0.364836,0.0868 -0.592849,0.16693 -1.338783,0.48609 -2.17196,1.0449 -0.833178,0.5588 -1.753605,1.35701 -2.64325,2.37505 -0.889645,1.01803 -1.748373,2.25571 -2.31407,3.47679 -0.565697,1.22107 -0.838402,2.42506 -1.007691,3.60133 -0.169288,1.17626 -0.234941,2.32449 -0.253214,3.46077 -0.01827,1.13627 0.01076,2.26086 0.135909,2.31355 0.125149,0.0527 0.346393,-0.96643 0.625285,-1.82108 0.278891,-0.85464 0.615434,-1.54466 1.068668,-2.2996 0.453234,-0.75493 1.023046,-1.57469 1.758032,-2.41484 0.734986,-0.84015 1.634932,-1.70036 2.704745,-2.58847 1.069813,-0.88811 2.309564,-1.80369 3.108854,-2.34921 0.79929,-0.54552 1.158391,-0.72109 1.39423,-1.02268 0.191908,-0.2454 0.300978,-0.57468 0.345715,-0.92035 0.282256,0.0507 0.656234,0.0599 1.163237,-0.0196 1.291996,-0.2027 3.45671,-0.98325 6.777364,-2.2071 3.320655,-1.22386 7.834144,-2.90411 10.783321,-4.21628 2.948094,-1.31169 4.33287,-2.2553 5.291667,-3.13521 2.130813,0.38031 5.551458,0.5727 8.927104,0.70383 3.518282,0.13667 6.983153,0.20726 11.30732,0.3204 4.324165,0.11314 9.507531,0.2692 12.071614,-0.15813 2.56409,-0.42733 2.50902,-1.43834 2.2686,-2.24896 -0.24043,-0.81063 -0.66636,-1.42111 -0.87954,-1.72651 -0.21318,-0.30541 -0.21345,-0.30528 -0.38757,-0.52038 -0.17412,-0.2151 -0.52224,-0.64568 -0.884184,-1.07229 -0.361942,-0.42662 -0.737772,-0.84906 -2.264978,-1.0449 -1.527208,-0.19586 -4.228713,-0.16405 -8.638749,-0.26355 -3.858785,-0.087 -9.060512,-0.27401 -13.038998,-0.26613 z" />
          <path
             id="path4243-9-4-2"
             style="fill:#0a0a41;fill-opacity:1;stroke:#1b1bdd;stroke-width:0.75;stroke-linecap:round;stroke-linejoin:round;stroke-dasharray:none;stroke-opacity:1"
             d="m 17.094047,113.59617 c -0.247652,-0.005 0.103701,0.45561 0.865064,1.16788 0.937063,0.87664 2.495177,2.13416 3.971333,3.12436 1.476156,0.9902 2.870051,1.713 3.866948,2.23036 0.996897,0.51735 1.596464,0.82912 2.171443,1.01285 0.574981,0.1837 1.125505,0.23937 1.528073,0.16847 0.06258,-0.011 0.121287,-0.0249 0.176733,-0.0419 0.01355,0.0185 0.02576,0.0372 0.04082,0.0553 0.231917,0.27871 0.636248,0.51342 1.465544,0.75395 0.829296,0.24053 2.083713,0.48713 4.014742,0.85267 1.931028,0.36554 4.538961,0.84981 7.279142,1.31258 2.740181,0.46277 5.612262,0.90379 7.650696,1.16943 2.038433,0.26565 3.243108,0.35595 3.845243,0.40101 0.602136,0.0451 0.602216,0.0451 0.937928,0.0569 0.33571,0.0118 1.006803,0.0355 1.52032,-0.0134 0.513519,-0.0489 0.869288,-0.17011 1.148767,-0.36845 0.05985,-0.0425 0.115635,-0.0892 0.168465,-0.13798 0.254233,0.24138 0.66649,0.49641 1.473296,0.66043 0.948727,0.19288 2.440754,0.25995 4.640543,0.39894 2.199789,0.139 5.107213,0.34985 8.355046,0.62012 3.247833,0.27028 6.835735,0.59999 9.640238,0.85317 2.804502,0.25321 4.825408,0.42995 5.983614,0.53641 1.158207,0.10646 1.45337,0.14233 1.967322,0.1757 0.513953,0.0334 1.246981,0.0647 1.74408,0.0744 0.497097,0.01 0.758729,-0.002 0.964799,-0.008 0.206067,-0.006 0.356684,-0.007 0.466121,-0.0109 0.109437,-0.004 0.177274,-0.011 0.153479,-0.061 -0.0238,-0.05 -0.139464,-0.14337 -0.267684,-0.23203 -0.128221,-0.0887 -0.268863,-0.17286 -0.463021,-0.28163 -0.194156,-0.10877 -0.441691,-0.24203 -0.746724,-0.38654 -0.305032,-0.14452 -0.667616,-0.30029 -1.091923,-0.44804 -0.424309,-0.14776 -0.910597,-0.28726 -1.421619,-0.41134 -0.51102,-0.12407 -1.046778,-0.23281 -1.731677,-0.35295 -0.6849,-0.12014 -1.518633,-0.25173 -2.988965,-0.45269 -1.470331,-0.20096 -3.577267,-0.47127 -5.843571,-0.74569 -2.266304,-0.27442 -4.692141,-0.55301 -7.072953,-0.82114 -2.380813,-0.26813 -4.72127,-0.5262 -6.80837,-0.75447 -2.0871,-0.22826 -3.923003,-0.42718 -4.935616,-0.51573 -1.012613,-0.0885 -1.201663,-0.0668 -1.4118,-0.0362 -0.210137,0.0307 -0.441173,0.0704 -0.622184,0.17312 -0.09781,0.0555 -0.179868,0.12982 -0.247014,0.20774 -0.108727,-0.0441 -0.220087,-0.0837 -0.329695,-0.11627 -0.397053,-0.11805 -0.762679,-0.15371 -1.340487,-0.21446 -0.57781,-0.0607 -1.368014,-0.14618 -3.222542,-0.36122 -1.85453,-0.21503 -4.772989,-0.55945 -7.821745,-0.97462 -3.048757,-0.41517 -6.227471,-0.90116 -8.140589,-1.20767 -1.913117,-0.30651 -2.56085,-0.43344 -3.204455,-0.56224 -0.563156,-0.11269 -1.123163,-0.22699 -1.706873,-0.22015 -0.08339,9.8e-4 -0.167229,0.005 -0.251664,0.0109 -0.400576,0.0298 -0.811791,0.12429 -1.149801,0.25321 -0.01032,-0.0726 -0.02395,-0.14143 -0.03927,-0.2036 -0.0586,-0.2377 -0.137661,-0.3773 -0.287837,-0.50333 -0.150178,-0.12603 -0.372041,-0.23852 -0.593763,-0.35089 -0.276042,-0.097 -0.551605,-0.19378 -0.889351,-0.3023 -0.337746,-0.10852 -0.737093,-0.22884 -1.247469,-0.38344 -0.510376,-0.15461 -1.131742,-0.34376 -2.145606,-0.73122 -1.013864,-0.38745 -2.420094,-0.97323 -3.938777,-1.79938 -1.518684,-0.82615 -3.150038,-1.89279 -3.80752,-2.17816 -0.123278,-0.0535 -0.212083,-0.0794 -0.269234,-0.0806 z" />
          <path
             id="path4355-3-5-7"
             style="fill:#0a0a41;fill-opacity:1;stroke:#1b1bdd;stroke-width:0.75;stroke-linecap:round;stroke-linejoin:round;stroke-dasharray:none;stroke-opacity:1"
             d="m 54.193075,81.512854 c -0.294557,0.0061 -0.739,0.06174 -1.261422,0.12609 -1.194108,0.147094 -2.796142,0.339381 -4.386296,0.578777 -1.590154,0.239394 -3.168308,0.525995 -4.609538,0.876432 -1.441229,0.350436 -2.744939,0.764691 -3.665409,1.136881 -0.920471,0.372191 -1.457293,0.701948 -1.802474,0.982369 -0.34518,0.280421 -0.498983,0.511227 -0.604614,0.725537 -0.105632,0.214312 -0.163348,0.412284 -0.192236,0.51108 -0.02889,0.0988 -0.02867,0.09895 -0.0057,0.213941 0.02297,0.114998 0.06849,0.344296 0.232544,0.605131 0.10623,0.168896 0.263078,0.351177 0.470772,0.542086 -0.05078,-0.0021 -0.102396,-0.0048 -0.150895,-0.0052 -0.270572,-0.002 -0.504683,0.02395 -0.692981,0.0832 -0.602551,0.189593 -0.734047,0.719056 -0.435115,1.518254 0.298929,0.799195 1.027932,1.867895 2.052071,3.250964 1.02414,1.383069 2.343521,3.080533 4.3248,4.970239 1.98128,1.889706 4.624506,3.971525 7.472929,5.887495 2.848425,1.91598 5.901626,3.66593 8.30492,4.90306 2.403292,1.23714 4.15632,1.96175 5.466333,1.99885 0.371781,0.0105 0.706704,-0.0361 1.005623,-0.12454 0.158678,0.32258 0.358363,0.62516 0.599964,0.90588 0.451952,0.52516 1.049781,0.97378 1.650545,1.40612 0.600761,0.43234 1.204613,0.84863 2.085144,1.25005 0.880531,0.40142 2.037812,0.78779 3.062345,1.10381 1.024533,0.31602 1.916051,0.56158 2.634465,0.76895 0.718412,0.20736 1.263675,0.37631 1.690853,0.41341 0.427175,0.0371 0.736687,-0.0576 1.039213,-0.18552 0.302523,-0.12798 0.597639,-0.28896 0.948262,-0.58756 0.350626,-0.2986 0.756709,-0.73504 1.043347,-1.14463 0.28664,-0.40959 0.454257,-0.79273 0.555005,-1.16737 0.100748,-0.37466 0.134309,-0.74048 0.10542,-1.12862 -0.02889,-0.38815 -0.120663,-0.79861 -0.802535,-1.27951 -0.681872,-0.4809 -1.953942,-1.03246 -3.36827,-1.54771 -1.414325,-0.51526 -2.970538,-0.994 -4.720125,-1.56011 -1.749587,-0.5661 -3.692496,-1.21946 -4.899443,-1.27641 -0.152112,-0.007 -0.292487,-0.005 -0.422196,0.006 -0.480766,-0.74436 -1.256714,-1.30681 -2.265495,-1.95802 -1.050213,-0.67796 -2.352032,-1.45245 -4.263822,-2.57762 -1.911789,-1.12518 -4.433376,-2.601109 -6.364986,-3.812176 -1.931609,-1.211067 -3.272845,-2.157191 -4.53099,-3.254065 -1.258145,-1.096875 -2.433264,-2.344328 -3.264917,-3.233394 -0.653608,-0.698729 -1.097565,-1.175462 -1.71049,-1.596802 0.350624,-0.0699 0.633598,-0.195519 0.859379,-0.353467 0.420807,-0.294379 0.645679,-0.698987 1.061434,-1.278475 0.415755,-0.579487 1.02265,-1.333487 1.72651,-2.032434 0.70386,-0.698948 1.504339,-1.343023 2.776058,-2.148189 1.271718,-0.805165 3.014549,-1.771229 3.49281,-2.203483 0.269021,-0.243144 0.137902,-0.317388 -0.240812,-0.309542 z" />
        </g>
        <g
           id="g4529-7-9-0-2"
           style="display:inline;fill:#0a0a41;fill-opacity:1;stroke:#1b1bdd;stroke-width:0.75;stroke-dasharray:none;stroke-opacity:1"
           transform="matrix(-1,0,0,1,294.3199,0.01121547)">
          <path
             id="path3872-5-2-3-2"
             style="fill:#0a0a41;fill-opacity:1;stroke:#1b1bdd;stroke-width:0.75;stroke-linecap:round;stroke-linejoin:round;stroke-dasharray:none;stroke-opacity:1"
             d="m 75.835681,133.06268 c -0.568355,0.001 -1.11169,0.006 -1.62264,0.016 -4.087596,0.0795 -6.098239,0.46841 -7.553544,0.98082 -1.178788,0.41504 -1.992801,0.91115 -2.471684,1.4118 -1.451553,0.42722 -3.204827,1.04948 -4.936649,1.69085 -2.577048,0.95439 -5.102948,1.949 -8.259961,3.1688 -3.157014,1.2198 -6.9447,2.66497 -8.699728,3.72587 -1.33885,0.80932 -1.493605,1.3951 -1.338419,1.91771 -0.115138,0.0216 -0.235931,0.0505 -0.364836,0.0868 -0.592849,0.16693 -1.338783,0.48609 -2.17196,1.0449 -0.833178,0.5588 -1.753605,1.35701 -2.64325,2.37505 -0.889645,1.01803 -1.748373,2.25571 -2.31407,3.47679 -0.565697,1.22107 -0.838402,2.42506 -1.007691,3.60133 -0.169288,1.17626 -0.234941,2.32449 -0.253214,3.46077 -0.01827,1.13627 0.01076,2.26086 0.135909,2.31355 0.125149,0.0527 0.346393,-0.96643 0.625285,-1.82108 0.278891,-0.85464 0.615434,-1.54466 1.068668,-2.2996 0.453234,-0.75493 1.023046,-1.57469 1.758032,-2.41484 0.734986,-0.84015 1.634932,-1.70036 2.704745,-2.58847 1.069813,-0.88811 2.309564,-1.80369 3.108854,-2.34921 0.79929,-0.54552 1.158391,-0.72109 1.39423,-1.02268 0.191908,-0.2454 0.300978,-0.57468 0.345715,-0.92035 0.282256,0.0507 0.656234,0.0599 1.163237,-0.0196 1.291996,-0.2027 3.45671,-0.98325 6.777364,-2.2071 3.320655,-1.22386 7.834144,-2.90411 10.783321,-4.21628 2.948094,-1.31169 4.33287,-2.2553 5.291667,-3.13521 2.130813,0.38031 5.551458,0.5727 8.927104,0.70383 3.518282,0.13667 6.983153,0.20726 11.30732,0.3204 4.324165,0.11314 9.507531,0.2692 12.071614,-0.15813 2.56409,-0.42733 2.50902,-1.43834 2.2686,-2.24896 -0.24043,-0.81063 -0.66636,-1.42111 -0.87954,-1.72651 -0.21318,-0.30541 -0.21345,-0.30528 -0.38757,-0.52038 -0.17412,-0.2151 -0.52224,-0.64568 -0.884184,-1.07229 -0.361942,-0.42662 -0.737772,-0.84906 -2.264978,-1.0449 -1.527208,-0.19586 -4.228713,-0.16405 -8.638749,-0.26355 -3.858785,-0.087 -9.060512,-0.27401 -13.038998,-0.26613 z" />
          <path
             id="path4243-3-8-6-6"
             style="fill:#0a0a41;fill-opacity:1;stroke:#1b1bdd;stroke-width:0.75;stroke-linecap:round;stroke-linejoin:round;stroke-dasharray:none;stroke-opacity:1"
             d="m 17.094047,113.59617 c -0.247652,-0.005 0.103701,0.45561 0.865064,1.16788 0.937063,0.87664 2.495177,2.13416 3.971333,3.12436 1.476156,0.9902 2.870051,1.713 3.866948,2.23036 0.996897,0.51735 1.596464,0.82912 2.171443,1.01285 0.574981,0.1837 1.125505,0.23937 1.528073,0.16847 0.06258,-0.011 0.121287,-0.0249 0.176733,-0.0419 0.01355,0.0185 0.02576,0.0372 0.04082,0.0553 0.231917,0.27871 0.636248,0.51342 1.465544,0.75395 0.829296,0.24053 2.083713,0.48713 4.014742,0.85267 1.931028,0.36554 4.538961,0.84981 7.279142,1.31258 2.740181,0.46277 5.612262,0.90379 7.650696,1.16943 2.038433,0.26565 3.243108,0.35595 3.845243,0.40101 0.602136,0.0451 0.602216,0.0451 0.937928,0.0569 0.33571,0.0118 1.006803,0.0355 1.52032,-0.0134 0.513519,-0.0489 0.869288,-0.17011 1.148767,-0.36845 0.05985,-0.0425 0.115635,-0.0892 0.168465,-0.13798 0.254233,0.24138 0.66649,0.49641 1.473296,0.66043 0.948727,0.19288 2.440754,0.25995 4.640543,0.39894 2.199789,0.139 5.107213,0.34985 8.355046,0.62012 3.247833,0.27028 6.835735,0.59999 9.640238,0.85317 2.804502,0.25321 4.825408,0.42995 5.983614,0.53641 1.158207,0.10646 1.45337,0.14233 1.967322,0.1757 0.513953,0.0334 1.246981,0.0647 1.74408,0.0744 0.497097,0.01 0.758729,-0.002 0.964799,-0.008 0.206067,-0.006 0.356684,-0.007 0.466121,-0.0109 0.109437,-0.004 0.177274,-0.011 0.153479,-0.061 -0.0238,-0.05 -0.139464,-0.14337 -0.267684,-0.23203 -0.128221,-0.0887 -0.268863,-0.17286 -0.463021,-0.28163 -0.194156,-0.10877 -0.441691,-0.24203 -0.746724,-0.38654 -0.305032,-0.14452 -0.667616,-0.30029 -1.091923,-0.44804 -0.424309,-0.14776 -0.910597,-0.28726 -1.421619,-0.41134 -0.51102,-0.12407 -1.046778,-0.23281 -1.731677,-0.35295 -0.6849,-0.12014 -1.518633,-0.25173 -2.988965,-0.45269 -1.470331,-0.20096 -3.577267,-0.47127 -5.843571,-0.74569 -2.266304,-0.27442 -4.692141,-0.55301 -7.072953,-0.82114 -2.380813,-0.26813 -4.72127,-0.5262 -6.80837,-0.75447 -2.0871,-0.22826 -3.923003,-0.42718 -4.935616,-0.51573 -1.012613,-0.0885 -1.201663,-0.0668 -1.4118,-0.0362 -0.210137,0.0307 -0.441173,0.0704 -0.622184,0.17312 -0.09781,0.0555 -0.179868,0.12982 -0.247014,0.20774 -0.108727,-0.0441 -0.220087,-0.0837 -0.329695,-0.11627 -0.397053,-0.11805 -0.762679,-0.15371 -1.340487,-0.21446 -0.57781,-0.0607 -1.368014,-0.14618 -3.222542,-0.36122 -1.85453,-0.21503 -4.772989,-0.55945 -7.821745,-0.97462 -3.048757,-0.41517 -6.227471,-0.90116 -8.140589,-1.20767 -1.913117,-0.30651 -2.56085,-0.43344 -3.204455,-0.56224 -0.563156,-0.11269 -1.123163,-0.22699 -1.706873,-0.22015 -0.08339,9.8e-4 -0.167229,0.005 -0.251664,0.0109 -0.400576,0.0298 -0.811791,0.12429 -1.149801,0.25321 -0.01032,-0.0726 -0.02395,-0.14143 -0.03927,-0.2036 -0.0586,-0.2377 -0.137661,-0.3773 -0.287837,-0.50333 -0.150178,-0.12603 -0.372041,-0.23852 -0.593763,-0.35089 -0.276042,-0.097 -0.551605,-0.19378 -0.889351,-0.3023 -0.337746,-0.10852 -0.737093,-0.22884 -1.247469,-0.38344 -0.510376,-0.15461 -1.131742,-0.34376 -2.145606,-0.73122 -1.013864,-0.38745 -2.420094,-0.97323 -3.938777,-1.79938 -1.518684,-0.82615 -3.150038,-1.89279 -3.80752,-2.17816 -0.123278,-0.0535 -0.212083,-0.0794 -0.269234,-0.0806 z" />
          <path
             id="path4355-5-3-1-1"
             style="fill:#0a0a41;fill-opacity:1;stroke:#1b1bdd;stroke-width:0.75;stroke-linecap:round;stroke-linejoin:round;stroke-dasharray:none;stroke-opacity:1"
             d="m 54.193075,81.512854 c -0.294557,0.0061 -0.739,0.06174 -1.261422,0.12609 -1.194108,0.147094 -2.796142,0.339381 -4.386296,0.578777 -1.590154,0.239394 -3.168308,0.525995 -4.609538,0.876432 -1.441229,0.350436 -2.744939,0.764691 -3.665409,1.136881 -0.920471,0.372191 -1.457293,0.701948 -1.802474,0.982369 -0.34518,0.280421 -0.498983,0.511227 -0.604614,0.725537 -0.105632,0.214312 -0.163348,0.412284 -0.192236,0.51108 -0.02889,0.0988 -0.02867,0.09895 -0.0057,0.213941 0.02297,0.114998 0.06849,0.344296 0.232544,0.605131 0.10623,0.168896 0.263078,0.351177 0.470772,0.542086 -0.05078,-0.0021 -0.102396,-0.0048 -0.150895,-0.0052 -0.270572,-0.002 -0.504683,0.02395 -0.692981,0.0832 -0.602551,0.189593 -0.734047,0.719056 -0.435115,1.518254 0.298929,0.799195 1.027932,1.867895 2.052071,3.250964 1.02414,1.383069 2.343521,3.080533 4.3248,4.970239 1.98128,1.889706 4.624506,3.971525 7.472929,5.887495 2.848425,1.91598 5.901626,3.66593 8.30492,4.90306 2.403292,1.23714 4.15632,1.96175 5.466333,1.99885 0.371781,0.0105 0.706704,-0.0361 1.005623,-0.12454 0.158678,0.32258 0.358363,0.62516 0.599964,0.90588 0.451952,0.52516 1.049781,0.97378 1.650545,1.40612 0.600761,0.43234 1.204613,0.84863 2.085144,1.25005 0.880531,0.40142 2.037812,0.78779 3.062345,1.10381 1.024533,0.31602 1.916051,0.56158 2.634465,0.76895 0.718412,0.20736 1.263675,0.37631 1.690853,0.41341 0.427175,0.0371 0.736687,-0.0576 1.039213,-0.18552 0.302523,-0.12798 0.597639,-0.28896 0.948262,-0.58756 0.350626,-0.2986 0.756709,-0.73504 1.043347,-1.14463 0.28664,-0.40959 0.454257,-0.79273 0.555005,-1.16737 0.100748,-0.37466 0.134309,-0.74048 0.10542,-1.12862 -0.02889,-0.38815 -0.120663,-0.79861 -0.802535,-1.27951 -0.681872,-0.4809 -1.953942,-1.03246 -3.36827,-1.54771 -1.414325,-0.51526 -2.970538,-0.994 -4.720125,-1.56011 -1.749587,-0.5661 -3.692496,-1.21946 -4.899443,-1.27641 -0.152112,-0.007 -0.292487,-0.005 -0.422196,0.006 -0.480766,-0.74436 -1.256714,-1.30681 -2.265495,-1.95802 -1.050213,-0.67796 -2.352032,-1.45245 -4.263822,-2.57762 -1.911789,-1.12518 -4.433376,-2.601109 -6.364986,-3.812176 -1.931609,-1.211067 -3.272845,-2.157191 -4.53099,-3.254065 -1.258145,-1.096875 -2.433264,-2.344328 -3.264917,-3.233394 -0.653608,-0.698729 -1.097565,-1.175462 -1.71049,-1.596802 0.350624,-0.0699 0.633598,-0.195519 0.859379,-0.353467 0.420807,-0.294379 0.645679,-0.698987 1.061434,-1.278475 0.415755,-0.579487 1.02265,-1.333487 1.72651,-2.032434 0.70386,-0.698948 1.504339,-1.343023 2.776058,-2.148189 1.271718,-0.805165 3.014549,-1.771229 3.49281,-2.203483 0.269021,-0.243144 0.137902,-0.317388 -0.240812,-0.309542 z"
             inkscape:label="path4355-5-3-1-1" />
        </g>
        <path
           id="path3412-4-2-3-0-0-0-6"
           style="display:inline;fill:#0a0a41;fill-opacity:1;stroke:#1b1bdd;stroke-width:0.499999;stroke-linecap:round;stroke-linejoin:round;stroke-dasharray:none;stroke-dashoffset:0;stroke-opacity:1"
           d="m 85.98171,56.05079 c -0.35861,0.422891 -0.93597,0.4048 -1.42739,0.388699 -0.17179,0.01666 -0.34929,-0.05142 -0.50439,-0.07439 -0.38344,0.145256 -0.79334,-0.01073 -1.18531,-0.0305 -0.77653,-0.101737 -1.57163,-0.288387 -2.34738,-0.0737 -0.7918,0.170943 -1.56972,0.552508 -2.39317,0.454879 -0.10619,0.01736 -0.33614,-0.1375 -0.33802,-0.02987 0.10785,0.678497 0.067,1.484549 -0.45337,1.971951 -0.64487,0.578699 -1.64553,0.65997 -2.37282,0.205833 -0.13738,-0.07853 -0.26991,-0.165968 -0.40113,-0.255404 0.26337,0.611842 0.4343,1.339368 0.15897,1.98172 -0.29118,0.753856 -1.05593,1.191855 -1.80385,1.204892 -0.47925,0.02992 -0.94746,-0.153702 -1.34153,-0.432469 0.30752,0.658771 0.40917,1.482342 0.0425,2.139796 -0.29833,0.59942 -0.89536,1.001886 -1.53387,1.038691 -0.35312,0.0331 -0.71518,0.03773 -1.05823,-0.07027 0.23973,0.635488 0.0248,1.3926 -0.46831,1.821959 -0.38372,0.41049 -0.96202,0.450154 -1.46252,0.590254 -1.22374,0.267355 -2.45518,0.492846 -3.68549,0.72324 2.20846,0.261374 4.42135,0.490223 6.62091,0.827866 0.70617,0.107371 1.42697,0.273699 2.01981,0.717759 0.8612,0.61987 1.59246,1.428325 2.22331,2.30103 0.28087,0.407825 0.51932,0.845732 0.78171,1.266702 0.0577,0.08819 0.17214,0.268662 0.25517,0.389482 0.71917,1.077948 1.74022,1.919631 2.90308,2.394083 1.29819,0.528881 2.70556,0.625972 4.08116,0.706128 0.99831,0.0375 2.01702,0.06755 2.99558,0.07509 0.74229,0.006 1.48674,0.0044 2.21136,-0.01098 1.85036,-0.05529 3.7288,-0.03267 5.53593,-0.51531 1.42132,-0.395992 2.71758,-1.301685 3.57779,-2.569408 0.11163,-0.154779 0.24477,-0.366425 0.32576,-0.49253 0.42838,-0.717703 0.84929,-1.448004 1.40967,-2.061996 0.76959,-0.882098 1.65535,-1.729799 2.77081,-2.066112 0.72515,-0.267064 1.50174,-0.269103 2.25521,-0.378964 1.70868,-0.19684 3.4172,-0.395328 5.12633,-0.587741 -1.43395,-0.278538 -2.87686,-0.51849 -4.29365,-0.886272 -0.35503,-0.08182 -0.68564,-0.265294 -0.92112,-0.563087 -0.40586,-0.432693 -0.53806,-1.117544 -0.33415,-1.680647 -0.52964,0.145366 -1.10503,0.118381 -1.62408,-0.06161 -0.86806,-0.3407 -1.38588,-1.419834 -1.14883,-2.365695 0.0514,-0.234855 0.13085,-0.461905 0.22533,-0.68091 -0.51111,0.378099 -1.16469,0.531862 -1.77408,0.373729 -0.7802,-0.148126 -1.44478,-0.85992 -1.50525,-1.708319 -0.0449,-0.492764 0.1128,-0.973899 0.29343,-1.420098 -0.47367,0.346645 -1.03717,0.618828 -1.62674,0.536084 -0.64416,-0.04914 -1.32024,-0.423717 -1.53665,-1.104235 -0.14947,-0.4517 -0.12889,-0.943814 -0.055,-1.40921 -0.78364,0.276365 -1.58896,-0.07053 -2.34989,-0.268228 -0.63941,-0.204566 -1.31781,-0.260022 -1.97662,-0.13483 -0.57228,0.06971 -1.14326,0.187329 -1.71989,0.196061 -0.13586,-0.0015 -0.25389,-0.119369 -0.38121,-0.02397 -0.37009,0.06601 -0.75441,0.05463 -1.12666,0.01089 -0.24704,-0.0486 -0.4883,-0.165953 -0.65696,-0.367691 z"
           transform="matrix(3.7964882,0,0,3.5855071,-178.93721,-121.60877)" />
      </g>
    </g>
  </g>
</svg>
